<?xml version="1.0" encoding="utf-8"?>
<!-- Generator: Adobe Illustrator 15.0.0, SVG Export Plug-In . SVG Version: 6.00 Build 0)  -->
<!DOCTYPE svg PUBLIC "-//W3C//DTD SVG 1.1//EN" "http://www.w3.org/Graphics/SVG/1.1/DTD/svg11.dtd">
<svg version="1.1" id="Layer_1" xmlns="http://www.w3.org/2000/svg" xmlns:xlink="http://www.w3.org/1999/xlink" x="0px" y="0px"
	 width="1037.62px" height="144px" viewBox="0 0 1037.62 144" enable-background="new 0 0 1037.62 144" xml:space="preserve">
<g>
	<defs>
		<rect id="SVGID_1_" width="1037.623" height="144"/>
	</defs>
	<clipPath id="SVGID_2_">
		<use xlink:href="#SVGID_1_"  overflow="visible"/>
	</clipPath>
	<g clip-path="url(#SVGID_2_)">
		<image overflow="visible" width="5044" height="700" xlink:href="D640374B.jpg"  transform="matrix(0.2057 0 0 0.2057 0 0)">
		</image>
	</g>
</g>
<path fill="#EFEFEF" d="M142.527,68.623l-53.31,0.102l46.534,69.911l-30.882,0.059L58.336,68.783l-39.688,0.076L3.911,46.719
	L43.6,46.643L23.592,16.584l30.882-0.059l20.008,30.06l53.309-0.102L142.527,68.623z M228.115,138.46l-30.53,0.059L110.413,7.551
	l30.53-0.058L228.115,138.46z M338.257,138.25l-30.53,0.059l-40.639-61.056c-1.927-2.896-4.409-5.093-7.445-6.594
	c-3.037-1.5-6.592-2.247-10.661-2.239l-55.071,0.104l-14.736-22.14l55.071-0.105c2.895-0.005,6.109,0.231,9.641,0.706
	c3.53,0.477,7.221,1.223,11.072,2.239c3.851,1.016,7.762,2.33,11.736,3.942c3.972,1.612,7.82,3.566,11.543,5.861
	c3.721,2.295,7.249,4.946,10.583,7.952c3.333,3.007,6.266,6.413,8.797,10.215L338.257,138.25z M485.545,126.801
	c1.058,1.59,1.648,3.066,1.773,4.431c0.124,1.363-0.169,2.545-0.877,3.54c-0.709,0.996-1.794,1.78-3.255,2.351
	c-1.462,0.571-3.25,0.858-5.363,0.862l-69.044,0.132c-3.757,0.007-7.977-0.297-12.659-0.914c-4.683-0.615-9.56-1.614-14.635-2.999
	c-5.076-1.382-10.258-3.135-15.55-5.256c-5.292-2.122-10.398-4.698-15.315-7.729c-4.918-3.031-9.58-6.533-13.986-10.504
	c-4.406-3.97-8.272-8.453-11.597-13.449l-34.007-51.092l30.529-0.058l34.008,51.093c1.927,2.895,4.34,5.491,7.241,7.787
	c2.899,2.297,6.073,4.267,9.517,5.908c3.445,1.643,7.045,2.899,10.801,3.773c3.756,0.874,7.472,1.307,11.153,1.3l53.427-0.102
	L401.17,45.962l30.53-0.058L485.545,126.801z M650.265,137.656l-30.53,0.058l-34.007-51.093c-1.928-2.895-4.342-5.491-7.241-7.787
	c-2.9-2.297-6.072-4.265-9.517-5.908c-3.444-1.642-7.044-2.899-10.801-3.773c-3.756-0.874-7.474-1.308-11.152-1.3l-53.427,0.102
	l46.534,69.911l-30.53,0.059l-53.958-81.067c-1.02-1.533-1.583-2.966-1.688-4.302c-0.106-1.335,0.216-2.501,0.964-3.498
	c0.749-0.996,1.873-1.78,3.373-2.352c1.501-0.57,3.308-0.859,5.422-0.863l68.809-0.131c3.834-0.007,8.094,0.297,12.776,0.914
	c4.682,0.617,9.579,1.616,14.693,2.999c5.113,1.384,10.276,3.135,15.491,5.257c5.213,2.122,10.3,4.699,15.256,7.73
	c4.958,3.032,9.619,6.533,13.987,10.503c4.366,3.971,8.214,8.454,11.538,13.449L650.265,137.656z M783.599,106.28
	c2.532,3.805,4.143,7.227,4.834,10.266c0.689,3.04,0.704,5.711,0.044,8.014c-0.662,2.304-1.903,4.268-3.722,5.891
	c-1.82,1.623-3.975,2.949-6.465,3.977c-2.49,1.028-5.199,1.787-8.126,2.275c-2.929,0.489-5.841,0.735-8.736,0.741l-55.07,0.104
	c-5.246,0.011-10.264-0.462-15.055-1.42c-4.792-0.957-9.311-2.242-13.558-3.854c-4.247-1.611-8.186-3.465-11.814-5.562
	c-3.629-2.096-6.913-4.293-9.853-6.589c-2.939-2.297-5.527-4.622-7.76-6.977c-2.233-2.354-4.03-4.555-5.391-6.598l-19.951-29.975
	c-3.778-5.676-5.553-10.49-5.321-14.442c0.23-3.95,1.657-7.165,4.28-9.643c2.622-2.478,6.08-4.26,10.372-5.349
	c4.292-1.087,8.552-1.636,12.779-1.645l55.07-0.104l14.737,22.14l-54.836,0.104c-4.071,0.008-6.662,0.767-7.774,2.274
	c-1.112,1.509-0.705,3.71,1.222,6.605l19.838,29.805c2.003,3.01,4.551,5.277,7.646,6.806c3.093,1.529,6.638,2.29,10.63,2.282
	l55.071-0.104c4.148-0.008,6.729-0.78,7.746-2.317c1.014-1.536,0.559-3.752-1.368-6.647L686.585,6.453l30.529-0.058L783.599,106.28z
	 M916.956,75.504c2.041,3.065,3.498,6.375,4.372,9.925c0.874,3.552,0.659,6.849-0.646,9.892c-1.306,3.044-3.96,5.592-7.961,7.646
	c-4.002,2.054-9.839,3.088-17.51,3.103l-55.071,0.104l-13.999-21.033l55.07-0.104c4.148-0.008,6.743-0.937,7.786-2.786
	c1.042-1.849,0.656-4.136-1.157-6.861c-1.927-2.895-4.711-5.163-8.351-6.805c-3.64-1.641-7.262-2.459-10.861-2.452l-55.07,0.105
	c-4.15,0.008-6.744,0.938-7.787,2.786c-1.043,1.85-0.656,4.137,1.158,6.861l20.574,30.911c1.965,2.952,4.767,5.249,8.407,6.891
	c3.64,1.642,7.339,2.458,11.096,2.451l54.836-0.104l14.057,21.118l-55.07,0.104c-4.228,0.009-9.147-0.521-14.757-1.592
	c-5.61-1.068-11.313-2.805-17.106-5.211c-5.795-2.404-11.395-5.548-16.801-9.432c-5.406-3.883-9.961-8.606-13.664-14.17
	l-20.688-31.082c-2.04-3.065-3.498-6.373-4.372-9.924c-0.875-3.55-0.659-6.848,0.646-9.892c1.306-3.042,3.959-5.592,7.962-7.646
	c4-2.054,9.837-3.088,17.51-3.103l55.07-0.105c4.228-0.008,9.146,0.524,14.757,1.592c5.609,1.069,11.312,2.807,17.106,5.211
	c5.794,2.406,11.396,5.549,16.801,9.432C908.699,65.218,913.254,69.941,916.956,75.504z M1031.014,66.931l-68.691,0.131
	c-4.15,0.008-6.779,0.767-7.892,2.274c-1.112,1.509-0.705,3.71,1.222,6.605l40.64,61.056l-30.53,0.058l-40.639-61.056
	c-2.531-3.802-4.134-7.209-4.806-10.222c-0.672-3.011-0.657-5.669,0.044-7.972c0.7-2.304,1.96-4.267,3.78-5.891
	c1.818-1.623,3.974-2.949,6.464-3.977c2.49-1.028,5.199-1.786,8.127-2.275c2.927-0.488,5.801-0.736,8.618-0.741l68.927-0.131
	L1031.014,66.931z"/>
</svg>
